<svg width="56" height="51" viewBox="0 0 56 51" fill="none" xmlns="http://www.w3.org/2000/svg">
<path d="M23 46.1575V50.5695L26.9816 48.3097L23 46.1575Z" fill="black"/>
<path d="M30.8019 46.1575V50.5695L26.8203 48.3097L30.8019 46.1575Z" fill="black"/>
<path d="M38.5959 18.0195L38.2332 34.4773C38.2332 34.4773 36.1776 37 28.0765 37C20.0962 37 18.8266 34.1169 18.8266 34.1169L18.5244 18.9805C18.1616 19.0406 18.9476 18.9805 18.5244 18.9805C14.232 19.0406 10 15.6169 10 11.3523C10 7.08766 13.5065 3.6039 17.7989 3.6039C18.8871 3.6039 19.9753 3.84416 20.9426 4.26461C22.2122 1.74188 24.9327 0 27.9556 0C30.8575 0 33.2153 1.62175 34.6058 3.96429C35.8754 3.00325 37.4472 2.52273 39.2005 2.52273C43.4929 2.52273 46.9993 5.94643 46.9993 10.2711C47.0598 14.5357 42.9488 18.0195 38.5959 18.0195C38.3541 18.0195 38.9586 18.0195 38.5959 18.0195Z" fill="white"/>
<path d="M9.90747 21.6009C9.90747 21.0431 9.85676 20.5866 9.80604 20.333C9.70461 19.7244 9.40031 19.1665 8.89314 18.7101C8.38597 18.2536 7.82809 18.0508 7.11806 18.0508C6.40803 18.0508 5.74871 18.3044 5.24155 18.8115C4.68366 18.3044 4.07506 18.0508 3.36503 18.0508C2.70572 18.0508 2.0464 18.3044 1.58995 18.7101C1.1335 19.1158 0.778485 19.623 0.626335 20.333C0.575619 20.6373 0.524902 21.0431 0.524902 21.6009V25.9626C0.524902 26.2162 0.727769 26.3176 0.879918 26.3176C1.1335 26.3176 1.23493 26.1147 1.23493 25.9626V21.4488C1.23493 20.6373 1.38708 19.978 1.7421 19.4708C2.09712 18.913 2.655 18.6594 3.41575 18.6594C3.97363 18.6594 4.43008 18.8622 4.83581 19.268C4.4808 19.8766 4.32865 20.5359 4.32865 21.4488V25.9119C4.32865 26.1147 4.4808 26.2669 4.68366 26.2669C4.93725 26.2669 5.03868 26.064 5.03868 25.9119V21.3981C5.03868 20.7388 5.14011 20.2316 5.29226 19.8766C5.44441 20.2823 5.54585 20.8909 5.54585 21.6009V25.9626C5.54585 26.1654 5.69799 26.3176 5.90086 26.3176C6.15444 26.3176 6.25588 26.1147 6.25588 25.9626V21.2966C6.25588 20.3837 6.10373 19.7244 5.74871 19.2173C6.10373 18.8622 6.56018 18.6594 7.11806 18.6594C7.62523 18.6594 8.08167 18.8115 8.43669 19.1158C8.79171 19.3694 9.04529 19.7751 9.19744 20.2823C9.29887 20.5866 9.29887 20.9416 9.29887 21.4488V25.9626C9.29887 26.1654 9.45102 26.3176 9.65389 26.3176C9.90747 26.3176 10.0089 26.1147 10.0089 25.9626L9.95819 25.709V21.6009H9.90747Z" fill="black"/>
<path d="M18.1236 19.3185C17.3122 18.5071 16.2978 18.1013 15.1314 18.1013C13.9649 18.1013 12.9505 18.5071 12.1391 19.3185C11.3276 20.13 10.9219 21.1443 10.9219 22.3108C10.9219 23.4773 11.3276 24.4916 12.1898 25.3031C13.052 26.1145 14.0663 26.5203 15.2328 26.5203C16.095 26.5203 16.9064 26.2667 17.5657 25.8102V25.9117C17.5657 26.2667 17.7686 26.3681 17.9208 26.3681C18.0729 26.3681 18.2758 26.216 18.2758 25.9117V25.2524C19.0872 24.3902 19.493 23.4266 19.493 22.3108C19.3915 21.0936 18.9351 20.0793 18.1236 19.3185ZM17.4643 22.3615V24.9988C16.7543 25.6074 15.9935 25.9117 15.1314 25.9117C14.1677 25.9117 13.3056 25.5567 12.6462 24.8466C11.9362 24.1873 11.6319 23.3758 11.6319 22.3615C11.6319 21.3472 11.9869 20.5357 12.697 19.8257C13.407 19.1157 14.2185 18.7606 15.2328 18.7606C16.1964 18.7606 17.0586 19.1157 17.7179 19.8257C18.3772 20.5357 18.7829 21.3472 18.7829 22.3108C18.7829 23.0208 18.5801 23.6294 18.2251 24.1873V22.3615C18.1236 21.8543 17.4643 21.8543 17.4643 22.3615Z" fill="black"/>
<path d="M23.9561 26.5203C24.9197 26.5203 25.8326 26.216 26.644 25.5567C26.8469 25.4046 26.9991 25.3031 27.1005 25.151H27.1512V25.1003C27.2019 25.0496 27.2019 24.9988 27.2019 24.8974C27.2019 24.7453 27.1005 24.5931 26.8976 24.5931H26.6948L26.644 24.6945V24.796C26.289 25.1003 25.8833 25.4046 25.4776 25.6074C25.0211 25.8103 24.5139 25.9625 24.0575 25.9625C23.0432 25.9625 22.2317 25.6074 21.5724 24.8974C20.8623 24.1874 20.5073 23.3759 20.5073 22.3616C20.5073 21.398 20.8623 20.5358 21.5724 19.8765C22.2317 19.1664 23.0432 18.8621 24.0575 18.8621C25.0211 18.8621 25.8833 19.2171 26.5933 19.9272L26.7455 20.0286H26.9483L26.9991 19.9779C27.1005 19.9272 27.1512 19.8257 27.1512 19.7243V19.6229L27.1005 19.5722C27.1005 19.5722 27.1005 19.5214 27.0498 19.5214C26.9991 19.4707 26.9991 19.42 26.9483 19.42C26.1876 18.6085 25.1733 18.1521 23.9561 18.1521C22.7896 18.1521 21.7752 18.5578 20.9638 19.3693C20.1523 20.1808 19.7466 21.1951 19.7466 22.3616C19.7466 23.4773 20.1523 24.4917 20.9638 25.3539C21.826 26.1146 22.8403 26.5203 23.9561 26.5203Z" fill="black"/>
<path d="M34.4034 19.3185C33.592 18.5071 32.5776 18.1013 31.4111 18.1013C30.2447 18.1013 29.2303 18.5071 28.4189 19.3185C27.6074 20.13 27.2017 21.1443 27.2017 22.3108C27.2017 23.4773 27.6074 24.4916 28.4189 25.3031C29.281 26.1145 30.2954 26.5203 31.4619 26.5203C32.324 26.5203 33.1355 26.2667 33.7948 25.8102V25.9117C33.7948 26.2667 33.9977 26.3681 34.1498 26.3681C34.302 26.3681 34.5048 26.216 34.5048 25.9117V25.2524C35.3163 24.3902 35.722 23.4266 35.722 22.3108C35.6713 21.0429 35.2656 20.0793 34.4034 19.3185ZM33.7441 22.3615V24.9988C33.0341 25.6074 32.2733 25.9117 31.4111 25.9117C30.4475 25.9117 29.5853 25.5567 28.8753 24.8466C28.1653 24.1873 27.861 23.3758 27.861 22.3615C27.861 21.3472 28.216 20.5357 28.926 19.8257C29.6361 19.1157 30.4475 18.7606 31.4619 18.7606C32.4255 18.7606 33.2877 19.1157 33.947 19.8257C34.657 20.5357 35.012 21.3472 35.012 22.3108C35.012 23.0208 34.8091 23.6801 34.4541 24.238V22.4122C34.4034 21.8543 33.7441 21.8543 33.7441 22.3615Z" fill="black"/>
<path d="M36.7369 26.3683C36.9904 26.3683 37.0919 26.1654 37.0919 26.0132V22.7167C37.0919 21.8545 37.1426 21.3473 37.244 20.9923C37.3962 20.4344 37.7005 19.978 38.1062 19.6229C38.5119 19.2679 38.9684 19.0651 39.4755 18.9129C39.7291 18.9129 39.8306 18.71 39.8306 18.5579C39.8306 18.3043 39.6784 18.2536 39.577 18.2029H39.5263H39.4755C39.222 18.2029 38.9177 18.3043 38.5626 18.5072C37.954 18.8115 37.4469 19.2172 37.0919 19.7751C37.0919 19.4708 37.0919 19.0651 37.0919 18.6086C37.0919 18.1014 36.3818 18.1014 36.3818 18.6086V26.0132C36.3818 26.2161 36.534 26.3683 36.7369 26.3683Z" fill="black"/>
<path d="M47.1842 19.3185C46.3727 18.5071 45.3584 18.1013 44.1919 18.1013C43.0254 18.1013 42.0111 18.5071 41.1996 19.3185C40.3882 20.13 39.9824 21.1443 39.9824 22.3108C39.9824 23.4773 40.3882 24.4916 41.1996 25.3031C42.0618 26.1145 43.0761 26.5203 44.2426 26.5203C45.4091 26.5203 46.4234 26.1145 47.2349 25.2524C48.0464 24.3902 48.4521 23.3758 48.4521 22.2094C48.4521 21.0936 48.0464 20.0793 47.1842 19.3185ZM44.1919 18.7606C45.1555 18.7606 46.0177 19.1157 46.677 19.8257C47.387 20.5357 47.7421 21.3472 47.7421 22.3108C47.7421 23.3251 47.387 24.1873 46.6263 24.8466C45.967 25.5567 45.1555 25.861 44.1412 25.861C43.1776 25.861 42.3154 25.5059 41.6561 24.7959C40.946 24.0859 40.591 23.2744 40.591 22.3108C40.591 21.2965 40.946 20.485 41.6561 19.775C42.3154 19.0649 43.1776 18.7606 44.1919 18.7606Z" fill="black"/>
<path d="M55.0451 20.2315C54.9436 19.6229 54.6393 19.1158 54.0815 18.6593C53.5743 18.2536 52.9657 18 52.3064 18C51.7992 18 51.3428 18.1014 50.937 18.355C50.6327 18.5579 50.3284 18.7608 50.1256 19.065V18.5579C50.1256 18.0507 49.4155 18.0507 49.4155 18.5579V25.9625C49.4155 26.2161 49.6184 26.3175 49.7705 26.3175C50.0241 26.3175 50.1256 26.1147 50.1256 25.9625V21.753C50.1256 21.2966 50.1256 20.8908 50.1763 20.688C50.2777 20.0794 50.4806 19.6229 50.8356 19.2679C51.2413 18.9129 51.7485 18.71 52.2557 18.71C52.6614 18.71 53.0671 18.8115 53.3714 19.0143C53.8279 19.2679 54.1322 19.6736 54.2336 20.1808C54.335 20.4851 54.335 21.043 54.335 21.753V25.9625C54.335 26.1654 54.4872 26.3175 54.6901 26.3175C54.7915 26.3175 54.8929 26.2668 54.9436 26.2161H55.0958V21.398C55.1465 20.9416 55.0958 20.5358 55.0451 20.2315Z" fill="black"/>
<path d="M16.3993 36.1057C16.0443 36.1057 15.9935 36.3086 15.9935 36.4607C15.9935 36.7143 16.1964 36.8157 16.3486 36.8157C16.7543 36.8157 17.0586 36.9172 17.4136 37.12C18.0729 37.4751 18.4279 38.0837 18.4279 38.8444C18.4279 39.4023 18.2251 39.8587 17.8193 40.2645C17.4136 40.6702 16.9572 40.8731 16.3993 40.8731C15.5878 40.8731 15.0299 40.5181 14.5735 39.808C14.4213 39.6052 14.3199 39.3009 14.3199 38.9458C14.3199 38.6923 14.1677 38.5401 13.9649 38.5401C13.7113 38.5401 13.6099 38.743 13.6099 38.8951C13.6099 39.6052 13.9142 40.2645 14.472 40.7209C14.9792 41.2281 15.6385 41.4817 16.3486 41.4817C17.1093 41.4817 17.7686 41.2281 18.2758 40.6702C18.783 40.163 19.0873 39.5037 19.0873 38.743C19.0873 37.9822 18.8337 37.3736 18.3265 36.8665C17.8193 36.41 17.16 36.1057 16.3993 36.1057Z" fill="black"/>
<path d="M16.247 33.9757C16.9063 33.9757 17.3628 34.2293 17.6671 34.7872C17.7178 34.8886 17.8192 35.0915 17.87 35.2944C17.87 35.5479 18.0221 35.7001 18.225 35.7001C18.4278 35.7001 18.58 35.5479 18.58 35.3451C18.58 34.7365 18.2757 34.2293 17.7685 33.925C17.3121 33.5193 16.8049 33.3164 16.1963 33.3164C15.5877 33.3164 15.0298 33.5193 14.5734 33.9757C14.1676 34.4829 13.9141 34.9901 13.9141 35.5987C13.9141 36.2073 14.1169 36.7651 14.5734 37.2216C14.9791 37.678 15.537 37.9316 16.1456 37.9316C16.3992 37.9316 16.5513 37.7795 16.5513 37.5766C16.5513 37.3737 16.3992 37.2216 16.1963 37.2216C15.7399 37.2216 15.3848 37.0694 15.0805 36.7651C14.7762 36.4608 14.6241 36.0551 14.6241 35.5987C14.6241 35.1422 14.7762 34.7365 15.0805 34.4322C15.4863 34.1279 15.8413 33.9757 16.247 33.9757Z" fill="black"/>
<path d="M25.2239 36.7143C25.2239 36.1564 25.1732 35.7507 25.1225 35.4971C24.9703 34.8378 24.666 34.3306 24.2096 33.9756C23.7024 33.5191 23.1952 33.3163 22.5359 33.3163C22.0795 33.3163 21.623 33.4177 21.2173 33.6713C20.8623 33.8234 20.6087 34.077 20.4058 34.3306V31.2876C20.4058 30.7804 19.6958 30.7804 19.6958 31.2876V40.9745C19.6958 41.2281 19.8987 41.3295 20.0508 41.3295C20.3044 41.3295 20.4058 41.1266 20.4058 40.9745V36.9171C20.4058 36.6128 20.4058 36.3593 20.4565 36.1564C20.4565 36.0042 20.4565 35.9028 20.4565 35.8521C20.558 35.2942 20.7608 34.8378 21.1159 34.4827C21.5216 34.1277 21.9273 33.9756 22.5359 33.9756C22.9417 33.9756 23.3474 34.077 23.6517 34.2799C24.1081 34.5842 24.3617 34.9392 24.4632 35.3956C24.5646 35.6999 24.5646 36.2071 24.5646 36.9171V40.9745C24.5646 41.1773 24.7167 41.3295 24.9196 41.3295C25.1732 41.3295 25.2746 41.1266 25.2746 40.9745L25.2239 40.7209V36.7143V36.7143Z" fill="black"/>
<path d="M33.034 34.4828C32.2226 33.6714 31.259 33.2656 30.1432 33.2656C29.0274 33.2656 28.0131 33.6714 27.2524 34.4828C26.4409 35.2943 26.0352 36.2579 26.0352 37.3737C26.0352 38.4894 26.4409 39.5038 27.2524 40.2645C28.0638 41.076 29.0274 41.4817 30.1939 41.4817C31.3604 41.4817 32.324 41.076 33.0848 40.2645C33.8962 39.4531 34.302 38.4894 34.302 37.323C34.302 36.1565 33.8962 35.2436 33.034 34.4828ZM27.7088 39.8081C27.0495 39.1488 26.6945 38.3373 26.6945 37.3737C26.6945 36.4101 27.0495 35.5986 27.7088 34.8886C28.3681 34.2292 29.1796 33.8742 30.1939 33.8742C31.1068 33.8742 31.969 34.2292 32.6283 34.8886C33.2876 35.5479 33.6426 36.3593 33.6426 37.323C33.6426 38.2866 33.2876 39.1488 32.5776 39.8081C31.9183 40.4674 31.1068 40.8224 30.1432 40.8224C29.2303 40.8224 28.3681 40.4674 27.7088 39.8081Z" fill="black"/>
<path d="M39.0695 33.2656C37.903 33.2656 36.9394 33.6714 36.1786 34.4828C35.4179 35.2943 34.9614 36.2579 34.9614 37.3737C34.9614 38.4894 35.3672 39.4531 36.1279 40.2645V43.5611C36.1279 43.764 36.2801 43.9161 36.4829 43.9161C36.7365 43.9161 36.8379 43.7132 36.8379 43.5611V40.8731C37.4973 41.3296 38.258 41.5324 39.0695 41.5324C40.236 41.5324 41.2503 41.1267 42.011 40.3659C42.8225 39.5545 43.2789 38.6416 43.2789 37.4751C43.2789 36.3086 42.8225 35.345 42.011 34.5335C41.1996 33.6714 40.236 33.2656 39.0695 33.2656ZM36.4829 37.0187C36.3308 37.0187 36.1279 37.1708 36.1279 37.4244V39.1488C35.8236 38.6416 35.6715 38.033 35.6715 37.3737C35.6715 36.4608 36.0265 35.5986 36.6858 34.9393C37.3958 34.2292 38.2073 33.9249 39.1709 33.9249C40.1345 33.9249 40.946 34.28 41.656 34.9393C42.3153 35.5986 42.6703 36.4101 42.6703 37.4244C42.6703 38.388 42.3153 39.1995 41.6053 39.8588C40.946 40.5181 40.1345 40.8731 39.1709 40.8731C38.3087 40.8731 37.548 40.5688 36.8887 39.9602V37.4244C36.8379 37.0694 36.6351 37.0187 36.4829 37.0187Z" fill="black"/>
</svg>
